<?xml version="1.0" standalone="no"?>
<!DOCTYPE svg PUBLIC "-//W3C//DTD SVG 20010904//EN"
 "http://www.w3.org/TR/2001/REC-SVG-20010904/DTD/svg10.dtd">
<svg version="1.0" xmlns="http://www.w3.org/2000/svg"
 width="400.000000pt" height="400.000000pt" viewBox="0 0 400.000000 400.000000"
 preserveAspectRatio="xMidYMid meet">
<metadata>
Created by potrace 1.11, written by Peter Selinger 2001-2013
</metadata>
<g transform="translate(0.000000,400.000000) scale(0.100000,-0.100000)"
fill="#000000" stroke="none">
<path d="M1585 3455 c-130 -24 -273 -90 -403 -187 -50 -38 -55 -39 -72 -23
-26 24 -134 55 -188 55 -122 -1 -284 -60 -465 -171 -105 -65 -297 -198 -399
-276 -57 -44 -58 -45 -58 -96 l0 -51 43 41 c107 104 440 330 602 409 153 75
264 97 372 74 83 -18 83 -21 20 -90 -32 -34 -69 -84 -82 -111 -14 -27 -29 -49
-33 -49 -12 0 -96 -143 -141 -240 -22 -47 -56 -139 -76 -205 -20 -65 -37 -120
-38 -120 -1 -1 -33 -21 -70 -44 -113 -73 -177 -165 -177 -255 0 -78 71 -171
220 -292 l70 -56 -15 -28 c-19 -37 -19 -60 1 -88 9 -13 12 -27 7 -35 -4 -6 -8
-32 -8 -57 -1 -25 -4 -55 -8 -67 -6 -16 -2 -28 12 -42 12 -12 21 -27 21 -35 0
-8 8 -24 19 -37 18 -22 18 -24 -21 -107 -49 -103 -84 -205 -98 -283 -9 -48 -8
-64 5 -89 13 -25 21 -30 52 -30 45 0 106 29 162 76 l42 36 23 -21 c57 -54 189
-77 263 -46 45 19 89 11 331 -57 196 -55 457 -119 582 -142 361 -67 863 -81
1090 -30 62 14 69 13 164 -11 169 -43 309 -30 398 38 31 24 38 25 120 20 95
-6 118 2 118 41 0 54 -75 94 -87 46 -6 -23 -14 -24 -81 -9 l-50 12 -31 -35
c-41 -47 -108 -78 -184 -85 -70 -6 -274 28 -311 52 -19 13 -33 13 -112 -2 -71
-14 -146 -18 -369 -18 -410 1 -607 29 -1125 162 -162 41 -323 83 -358 91 -54
14 -68 14 -95 3 -82 -35 -156 -23 -229 34 -24 19 -52 35 -62 35 -10 0 -41 -20
-67 -45 -48 -45 -114 -84 -124 -73 -10 9 22 129 61 236 l37 100 29 -10 c15 -5
28 -16 28 -24 0 -17 51 -44 85 -44 15 0 38 -9 52 -20 14 -11 35 -20 46 -20 11
0 28 -7 37 -15 11 -10 37 -15 71 -16 30 0 68 0 84 0 17 -1 46 -1 65 0 19 1 52
1 73 1 22 0 48 5 58 11 14 7 25 6 41 -6 31 -21 71 -19 103 7 19 15 39 21 61
19 35 -3 74 26 74 54 0 11 13 15 53 15 40 0 59 5 75 20 12 12 22 25 22 30 0 6
11 10 24 10 33 0 56 25 56 60 0 20 6 31 20 35 32 10 70 57 70 87 0 15 5 30 11
34 7 4 9 21 5 45 -6 34 -3 40 16 48 88 34 121 50 179 87 94 59 170 141 216
229 21 41 40 74 43 72 3 -1 48 -23 100 -49 106 -53 229 -91 365 -113 119 -20
245 -20 271 0 10 8 29 15 42 15 27 0 82 50 82 74 0 21 -7 20 -37 -4 -30 -24
-69 -26 -77 -5 -7 20 -42 19 -50 -2 -13 -33 -281 1 -446 57 -336 116 -545 388
-591 768 -15 128 -1 235 43 322 l33 65 71 3 c86 3 156 -20 247 -82 34 -23 88
-54 121 -69 140 -64 303 -183 406 -294 96 -105 209 -284 319 -507 56 -112 101
-210 101 -218 0 -16 26 -42 50 -50 19 -7 50 9 50 25 0 18 -180 371 -245 482
-155 262 -288 404 -555 589 -130 91 -250 154 -335 176 -28 7 -80 35 -118 62
-151 109 -348 196 -504 223 -101 18 -144 18 -238 0z m314 -101 c86 -25 264
-108 311 -144 l25 -20 -22 -6 c-12 -3 -38 -26 -57 -51 -97 -125 -121 -343 -62
-574 47 -184 119 -320 239 -445 l68 -73 -61 -78 c-63 -79 -133 -139 -216 -183
-34 -18 -48 -22 -51 -12 -7 18 -50 15 -70 -6 -71 -72 -149 -93 -373 -101 -166
-6 -175 -7 -175 -26 0 -17 9 -21 65 -26 149 -15 326 -7 401 16 28 9 24 -21
-13 -96 -62 -124 -191 -221 -353 -265 -90 -24 -332 -30 -418 -10 -142 33 -240
101 -295 203 -33 63 -57 177 -47 224 l6 28 77 -38 c87 -44 142 -57 172 -41 39
21 21 39 -97 99 -140 70 -252 148 -346 239 -102 100 -117 143 -77 221 22 44
50 69 138 126 69 45 69 46 105 197 27 115 112 338 154 403 57 89 202 229 313
304 245 164 428 201 659 135z m513 -1411 c-56 -106 -168 -205 -317 -281 l-60
-31 -8 22 c-10 26 7 40 122 98 88 44 173 116 241 204 23 30 46 55 50 55 4 0
-8 -30 -28 -67z m-1658 -240 c-8 -46 -9 -47 -29 -40 -9 4 -15 18 -15 35 0 34
6 42 32 42 16 0 18 -5 12 -37z m1256 -75 c0 -11 -8 -27 -17 -33 -17 -13 -17
-14 0 -32 24 -28 21 -43 -9 -43 -23 0 -25 3 -20 26 4 15 9 40 12 58 3 17 8 37
10 44 6 19 24 4 24 -20z m-1260 -43 c0 -33 -2 -35 -20 -25 -23 12 -26 30 -8
48 20 20 28 14 28 -23z m10 -62 c0 -29 55 -136 89 -176 73 -82 227 -154 356
-164 39 -3 77 -9 85 -14 27 -14 -18 -23 -58 -11 -24 8 -38 8 -40 2 -2 -6 -26
-10 -53 -10 -37 0 -54 5 -66 20 -11 13 -24 18 -39 14 -14 -4 -29 1 -41 13 -10
10 -41 23 -68 28 -43 9 -50 13 -48 32 2 18 -4 23 -32 29 -39 7 -59 32 -44 55
13 20 11 29 -6 29 -23 0 -55 37 -55 64 0 13 -7 26 -15 30 -20 7 -19 40 1 60
20 21 34 20 34 -1z m1214 -29 c13 -33 5 -53 -30 -74 -19 -12 -37 -20 -39 -18
-3 2 5 28 17 56 22 52 41 65 52 36z m-84 -143 c0 -32 -16 -43 -50 -34 -21 6
-21 6 6 34 35 36 44 36 44 0z m-92 -82 c-7 -5 -29 -9 -48 -8 l-35 0 37 19 c20
11 40 25 45 32 5 9 9 6 11 -11 2 -13 -2 -28 -10 -32z m-138 -54 c0 -24 -36
-38 -62 -24 l-23 12 30 13 c40 17 55 17 55 -1z m-100 -23 c0 -18 -40 -44 -66
-44 -14 0 -33 6 -41 15 -14 14 -11 16 28 25 58 13 79 14 79 4z m-155 -22 c-3
-5 -19 -10 -36 -10 -16 0 -29 5 -29 10 0 6 16 10 36 10 21 0 33 -4 29 -10z"/>
<path d="M1390 2651 c0 -17 5 -33 11 -36 15 -10 17 -4 12 33 -6 40 -23 42 -23
3z"/>
<path d="M1491 2654 c-6 -15 -9 -29 -7 -32 10 -9 36 20 36 39 0 27 -15 23 -29
-7z"/>
<path d="M1184 2623 c-31 -26 -47 -61 -40 -89 5 -20 13 -24 42 -24 51 0 86 38
82 88 -3 33 -6 37 -33 40 -17 1 -39 -5 -51 -15z"/>
<path d="M1629 2594 c-9 -3 -24 -23 -32 -46 -16 -40 -16 -40 13 -69 34 -34 78
-38 104 -10 22 24 25 86 5 106 -16 16 -65 26 -90 19z"/>
<path d="M1345 2488 c-2 -7 -5 -24 -7 -37 -4 -31 -35 -52 -47 -32 -9 14 -31 7
-31 -10 0 -5 9 -17 20 -26 13 -11 20 -30 20 -53 1 -58 45 -94 103 -83 31 6 87
65 87 91 0 10 5 23 12 30 21 21 -5 36 -42 24 -44 -16 -80 -1 -72 30 3 13 12
28 20 34 24 18 7 44 -28 44 -17 0 -33 -6 -35 -12z m14 -122 c7 -8 26 -18 42
-21 38 -8 35 -35 -4 -49 -34 -12 -54 4 -63 52 -7 34 5 42 25 18z"/>
<path d="M944 1602 c-3 -9 -13 -35 -22 -56 -9 -22 -17 -57 -17 -79 0 -31 7
-45 33 -68 37 -33 58 -36 90 -13 30 21 28 29 -11 31 -34 3 -67 33 -67 62 1 9
7 34 15 56 8 22 15 47 15 56 0 24 -29 33 -36 11z"/>
<path d="M1269 1573 c-1 -5 -2 -15 -3 -23 0 -8 -14 -17 -31 -20 -39 -7 -40
-34 -1 -38 26 -3 28 -6 22 -34 -3 -17 -6 -34 -6 -38 0 -5 -15 -14 -34 -20 -42
-13 -52 -35 -31 -66 26 -41 95 -28 95 18 0 14 8 18 35 18 43 0 46 18 5 33 -26
10 -30 16 -30 49 0 33 4 40 28 50 l27 11 -27 10 c-20 8 -28 18 -28 34 0 21
-18 34 -21 16z m-29 -213 c0 -5 -4 -10 -10 -10 -5 0 -10 5 -10 10 0 6 5 10 10
10 6 0 10 -4 10 -10z"/>
<path d="M1520 1556 c0 -8 -14 -19 -31 -25 -30 -10 -32 -31 -2 -31 13 0 14 -7
9 -37 -4 -21 -10 -62 -13 -92 -5 -48 -4 -53 13 -49 15 3 21 19 32 88 15 88 22
100 59 100 12 0 25 5 29 11 9 15 -16 30 -39 23 -10 -3 -19 1 -23 10 -8 20 -34
21 -34 2z"/>
<path d="M1350 1538 c0 -34 12 -44 49 -44 40 1 48 14 26 41 -13 17 -16 18 -25
5 -9 -13 -12 -13 -21 3 -14 24 -29 21 -29 -5z"/>
<path d="M1136 1529 c-3 -8 -14 -39 -26 -69 -11 -30 -20 -65 -20 -78 0 -29 29
-41 45 -18 18 24 30 155 16 169 -7 7 -12 6 -15 -4z"/>
<path d="M1623 1478 c-32 -15 -29 -28 6 -28 29 0 57 21 44 33 -9 9 -24 8 -50
-5z"/>
<path d="M1610 1403 c0 -18 25 -33 57 -33 23 0 33 5 33 15 0 9 -9 15 -22 15
-13 0 -33 3 -45 6 -13 4 -23 2 -23 -3z"/>
<path d="M0 2507 c0 -32 4 -37 37 -48 21 -7 75 -13 120 -15 65 -2 93 -8 136
-29 71 -34 156 -44 180 -20 9 9 17 19 17 23 0 4 -35 7 -77 8 -43 0 -91 6 -107
12 -28 12 -28 13 -10 27 18 13 17 15 -18 29 -21 9 -61 16 -90 16 -50 1 -99 8
-160 25 -27 7 -28 6 -28 -28z"/>
<path d="M3562 1730 c-129 -18 -210 -62 -180 -97 6 -7 18 -11 27 -8 17 5 194
-165 277 -265 54 -66 152 -218 229 -355 36 -66 71 -124 76 -130 5 -5 9 18 9
61 0 68 -2 74 -57 165 -126 210 -305 417 -436 504 -71 47 -66 53 74 68 170 19
270 -12 293 -90 17 -57 -93 -87 -159 -43 -54 36 -101 19 -76 -28 15 -28 90
-62 137 -62 58 0 113 18 141 47 22 21 25 31 21 73 -6 62 -45 116 -104 142 -52
23 -179 31 -272 18z"/>
</g>
</svg>
