<?xml version="1.0" standalone="no"?>
<!DOCTYPE svg PUBLIC "-//W3C//DTD SVG 20010904//EN"
 "http://www.w3.org/TR/2001/REC-SVG-20010904/DTD/svg10.dtd">
<svg version="1.0" xmlns="http://www.w3.org/2000/svg"
 width="400.000000pt" height="400.000000pt" viewBox="0 0 400.000000 400.000000"
 preserveAspectRatio="xMidYMid meet">
<metadata>
Created by potrace 1.11, written by Peter Selinger 2001-2013
</metadata>
<g transform="translate(0.000000,400.000000) scale(0.100000,-0.100000)"
fill="#000000" stroke="none">
<path d="M448 3993 c7 -3 16 -2 19 1 4 3 -2 6 -13 5 -11 0 -14 -3 -6 -6z"/>
<path d="M1585 3462 c-16 -2 -34 -8 -39 -13 -6 -5 -17 -9 -25 -9 -21 0 -193
-72 -209 -87 -7 -7 -18 -13 -23 -13 -5 0 -33 -17 -62 -38 -84 -62 -94 -66
-130 -49 -109 52 -213 61 -313 27 -181 -61 -506 -249 -709 -410 l-75 -60 0
-174 c0 -203 -16 -182 149 -193 87 -5 114 -11 160 -35 56 -27 151 -40 151 -19
0 26 89 46 184 42 18 -1 18 -2 1 -21 -10 -11 -23 -20 -29 -20 -21 -1 -107 -71
-116 -95 -5 -14 -14 -25 -20 -25 -13 0 -46 -67 -54 -111 -14 -79 71 -238 147
-274 18 -8 48 -35 67 -60 19 -24 43 -47 53 -50 16 -6 16 -8 2 -28 -20 -29 -20
-97 0 -97 17 0 20 -16 5 -25 -6 -4 -9 -25 -7 -47 2 -23 0 -56 -6 -74 -11 -35
3 -66 26 -61 7 1 11 -4 9 -12 -2 -8 5 -29 14 -47 17 -32 17 -34 -3 -76 -71
-143 -108 -260 -112 -350 -2 -65 -2 -67 28 -82 27 -15 34 -15 78 0 26 9 71 36
100 60 l52 44 46 -31 c26 -17 63 -35 83 -40 57 -13 136 -11 169 6 26 13 39 13
114 -1 46 -9 92 -20 101 -25 9 -5 68 -22 130 -39 62 -16 181 -47 264 -69 83
-23 180 -45 215 -50 35 -5 107 -19 159 -29 303 -64 944 -63 1063 0 12 6 23 6
32 -2 25 -21 173 -49 264 -51 77 -1 97 2 148 25 32 15 67 36 79 47 18 17 28
18 80 11 67 -9 67 -9 114 2 58 14 60 18 60 148 0 134 -8 162 -70 245 -22 29
-40 57 -40 63 0 5 -4 10 -8 10 -5 0 -17 18 -27 40 -10 23 -23 44 -30 48 -12 8
-75 87 -75 95 0 3 -19 24 -42 46 -43 42 -47 65 -6 37 46 -32 184 -12 218 32
25 31 26 89 3 133 -19 34 -42 64 -52 64 -3 1 -15 6 -26 11 -31 17 -115 35
-133 30 -12 -4 -26 9 -47 42 -16 26 -44 63 -61 82 -23 25 -31 42 -28 60 3 14
-4 40 -15 60 -12 19 -49 94 -84 165 -72 146 -168 317 -216 385 -17 25 -39 56
-49 70 -9 13 -35 43 -57 65 -22 23 -62 67 -90 99 -27 32 -66 66 -86 77 -21 10
-44 27 -51 38 -16 22 -90 80 -138 106 -19 11 -39 25 -45 31 -18 20 -198 124
-215 124 -9 0 -25 7 -36 15 -10 8 -31 15 -46 15 -17 0 -52 18 -88 44 -129 95
-301 182 -422 212 -35 9 -88 22 -118 30 -49 13 -149 15 -235 6z"/>
</g>
</svg>
